<svg xmlns="http://www.w3.org/2000/svg" width="29.76" height="15.83" viewBox="0 0 29.76 15.83">
  <g id="Groupe_59" data-name="Groupe 59" transform="translate(-2104 275)">
    <rect id="Rectangle_45" data-name="Rectangle 45" width="29.76" height="15.83" transform="translate(2104 -275)" fill="#2b45d9"/>
    <g id="Groupe_58" data-name="Groupe 58" transform="translate(2107.585 -271.414)">
      <path id="Tracé_28" data-name="Tracé 28" d="M122.491,639.872V631.25h5.547a5.4,5.4,0,0,1,3.65,1.11,3.946,3.946,0,0,1,1.277,3.148,4.68,4.68,0,0,1-.5,2.174,3.772,3.772,0,0,1-1.4,1.521,4.068,4.068,0,0,1-1.4.51,11.8,11.8,0,0,1-2.141.159Zm2.007-1.623h2.594a5.052,5.052,0,0,0,2.937-.644,2.482,2.482,0,0,0,.865-2.129,2.633,2.633,0,0,0-.718-2,2.972,2.972,0,0,0-2.121-.681H124.5Z" transform="translate(-122.491 -631.25)" fill="#fff"/>
      <path id="Tracé_29" data-name="Tracé 29" d="M167.6,639.872V631.25h7.374a2.267,2.267,0,0,1,1.489.4,1.6,1.6,0,0,1,.461,1.277v2.023a1.6,1.6,0,0,1-.461,1.272,2.252,2.252,0,0,1-1.489.4h-1.126l3.981,3.255H174.95l-3.475-3.255h-1.9v3.255Zm6.485-7.129h-4.511v2.4h4.511a1.212,1.212,0,0,0,.713-.151.645.645,0,0,0,.192-.534V633.42a.634.634,0,0,0-.192-.526A1.211,1.211,0,0,0,174.086,632.743Z" transform="translate(-155.241 -631.25)" fill="#fff"/>
    </g>
  </g>
</svg>
