<svg xmlns="http://www.w3.org/2000/svg" width="250.369" height="32" viewBox="0 0 250.369 32">
  <g id="Groupe_61" data-name="Groupe 61" transform="translate(-2468.784 366.51)">
    <g id="Groupe_54" data-name="Groupe 54" transform="translate(2532.024 -359.351)">
      <path id="Tracé_21" data-name="Tracé 21" d="M215.6,648.933V631.25h4.115v6.859h12.848V631.25h4.149v17.683h-4.149v-7.612H219.714v7.612Z" transform="translate(-215.599 -631.25)" fill="#2b45d9"/>
      <path id="Tracé_22" data-name="Tracé 22" d="M261.878,635.432a4.606,4.606,0,0,1,.9-3.3q.9-.887,3.479-.887h13.015q2.576,0,3.48.887a4.606,4.606,0,0,1,.9,3.3v9.318q0,2.426-.9,3.3t-3.48.878H266.261q-2.576,0-3.479-.878t-.9-3.3Zm4.115,10.171h13.567V634.412H265.993Z" transform="translate(-232.101 -631.25)" fill="#2b45d9"/>
      <path id="Tracé_23" data-name="Tracé 23" d="M313.313,631.25V645.6H325.04V631.25h4.1v13.5q0,2.426-.9,3.3t-3.48.878H313.581q-2.56,0-3.471-.878t-.912-3.3v-13.5Z" transform="translate(-248.974 -631.25)" fill="#2b45d9"/>
      <path id="Tracé_24" data-name="Tracé 24" d="M369.265,634.345H357.688v3.8h11.024q2.593,0,3.505.887a4.578,4.578,0,0,1,.912,3.3v2.426a4.577,4.577,0,0,1-.912,3.3q-.913.887-3.505.887H357.788q-2.593,0-3.5-.887a4.574,4.574,0,0,1-.912-3.3v-.485l3.63-.753V645.6h12.5v-4.032H358.474q-2.577,0-3.48-.887a4.6,4.6,0,0,1-.9-3.3v-1.957a4.606,4.606,0,0,1,.9-3.3q.9-.887,3.48-.887h10.037a5.208,5.208,0,0,1,3.438.854,3.957,3.957,0,0,1,.945,3.027v.368l-3.63.853Z" transform="translate(-264.725 -631.25)" fill="#2b45d9"/>
      <path id="Tracé_25" data-name="Tracé 25" d="M397.337,648.933V631.25h18.1v3.011H401.452v3.948h8.164v3.011h-8.164V645.6h14.153v3.329Z" transform="translate(-280.402 -631.25)" fill="#2b45d9"/>
      <path id="Tracé_26" data-name="Tracé 26" d="M440.411,648.933a5.047,5.047,0,0,1-3.221-.736,3.565,3.565,0,0,1-.827-2.727v-1.439l3.63-.753v2.476h9.536a2.086,2.086,0,0,0,1.363-.318,1.744,1.744,0,0,0,.344-1.271v-1.288a1.78,1.78,0,0,0-.351-1.3,2.051,2.051,0,0,0-1.356-.326h-5.972v-2.877h5.32a2.016,2.016,0,0,0,1.338-.317,1.809,1.809,0,0,0,.335-1.288v-.887a1.837,1.837,0,0,0-.335-1.3,2.016,2.016,0,0,0-1.338-.318h-8.733v2.208l-3.5-.652v-1.1a3.585,3.585,0,0,1,.82-2.727,5,5,0,0,1,3.212-.736h9.568a5.008,5.008,0,0,1,3.213.736,3.591,3.591,0,0,1,.819,2.727v1.606a3.146,3.146,0,0,1-.752,2.309,4.838,4.838,0,0,1-2.661,1.054,5.439,5.439,0,0,1,3.112,1.071,3.188,3.188,0,0,1,.987,2.526v1.857a3.832,3.832,0,0,1-.937,2.986,5.2,5.2,0,0,1-3.345.811Z" transform="translate(-294.318 -631.25)" fill="#2b45d9"/>
      <path id="Tracé_27" data-name="Tracé 27" d="M481.569,648.933a5.045,5.045,0,0,1-3.22-.736,3.562,3.562,0,0,1-.827-2.727v-1.439l3.63-.753v2.476h9.536a2.09,2.09,0,0,0,1.364-.318,1.744,1.744,0,0,0,.343-1.271v-1.288a1.78,1.78,0,0,0-.352-1.3,2.048,2.048,0,0,0-1.355-.326h-5.972v-2.877h5.32a2.018,2.018,0,0,0,1.339-.317,1.809,1.809,0,0,0,.334-1.288v-.887a1.838,1.838,0,0,0-.334-1.3,2.018,2.018,0,0,0-1.339-.318H481.3v2.208l-3.5-.652v-1.1a3.588,3.588,0,0,1,.82-2.727,5.006,5.006,0,0,1,3.213-.736h9.568a5.006,5.006,0,0,1,3.212.736,3.588,3.588,0,0,1,.819,2.727v1.606a3.138,3.138,0,0,1-.753,2.309,4.826,4.826,0,0,1-2.659,1.054,5.437,5.437,0,0,1,3.112,1.071,3.19,3.19,0,0,1,.987,2.526v1.857a3.834,3.834,0,0,1-.936,2.986,5.2,5.2,0,0,1-3.347.811Z" transform="translate(-308.993 -631.25)" fill="#2b45d9"/>
    </g>
    <g id="Groupe_57" data-name="Groupe 57" transform="translate(2468.58 -366.157)">
      <rect id="Rectangle_45" data-name="Rectangle 45" width="56" height="32" transform="translate(0.205 -0.353)" fill="#ff5e34"/>
      <g id="Groupe_56" data-name="Groupe 56" transform="translate(3.536 6.806)">
        <g id="Groupe_55" data-name="Groupe 55" transform="translate(0)">
          <path id="Tracé_28" data-name="Tracé 28" d="M122.491,648.933V631.25h11.376q4.868,0,7.486,2.276a8.093,8.093,0,0,1,2.618,6.457,9.6,9.6,0,0,1-1.02,4.458,7.737,7.737,0,0,1-2.877,3.12,8.349,8.349,0,0,1-2.869,1.046,24.221,24.221,0,0,1-4.391.326Zm4.115-3.329h5.32q4.25,0,6.022-1.322t1.773-4.366a5.4,5.4,0,0,0-1.472-4.107,6.1,6.1,0,0,0-4.35-1.4h-7.294Z" transform="translate(-122.491 -631.25)" fill="#fff"/>
          <path id="Tracé_29" data-name="Tracé 29" d="M167.6,648.933V631.25h15.122a4.652,4.652,0,0,1,3.053.811,3.278,3.278,0,0,1,.945,2.619v4.148a3.28,3.28,0,0,1-.945,2.61,4.619,4.619,0,0,1-3.053.82h-2.309l8.164,6.675h-5.905l-7.127-6.675h-3.9v6.675Zm13.3-14.621h-9.251v4.918H180.9a2.483,2.483,0,0,0,1.463-.309,1.322,1.322,0,0,0,.393-1.1V635.7a1.3,1.3,0,0,0-.393-1.08A2.483,2.483,0,0,0,180.9,634.311Z" transform="translate(-138.576 -631.25)" fill="#fff"/>
        </g>
      </g>
    </g>
  </g>
</svg>
