<svg xmlns="http://www.w3.org/2000/svg" width="16" height="16" viewBox="0 0 16 16">
  <g id="Groupe_60" data-name="Groupe 60" transform="translate(-2068 250)">
    <rect id="Rectangle_45" data-name="Rectangle 45" width="16" height="16" transform="translate(2068 -250)" fill="#2b45d9"/>
    <g id="Groupe_58" data-name="Groupe 58" transform="translate(2070 -245)">
      <path id="Tracé_28" data-name="Tracé 28" d="M122.491,637.25v-6h3.083a2.618,2.618,0,0,1,2.029.772,3.12,3.12,0,0,1,.71,2.191,3.945,3.945,0,0,1-.277,1.513,2.5,2.5,0,0,1-.78,1.059,2,2,0,0,1-.778.355,5.272,5.272,0,0,1-1.19.111Zm1.115-1.129h1.442a2.37,2.37,0,0,0,1.632-.449,1.952,1.952,0,0,0,.481-1.481,2.116,2.116,0,0,0-.4-1.394,1.454,1.454,0,0,0-1.179-.474h-1.977Z" transform="translate(-122.491 -631.25)" fill="#fff"/>
      <path id="Tracé_29" data-name="Tracé 29" d="M167.6,637.25v-6h4.1a1.085,1.085,0,0,1,.828.275,1.278,1.278,0,0,1,.256.889v1.408a1.28,1.28,0,0,1-.256.885,1.079,1.079,0,0,1-.828.278h-.626l2.213,2.265h-1.6l-1.932-2.265H168.7v2.265Zm3.6-4.961H168.7v1.669h2.508a.567.567,0,0,0,.4-.105.515.515,0,0,0,.107-.372v-.721a.505.505,0,0,0-.107-.366A.567.567,0,0,0,171.206,632.289Z" transform="translate(-161.287 -631.25)" fill="#fff"/>
    </g>
  </g>
</svg>
