<svg xmlns="http://www.w3.org/2000/svg" width="16.6" height="8.83" viewBox="0 0 16.6 8.83">
  <g id="Groupe_59" data-name="Groupe 59" transform="translate(-2104 275)">
    <rect id="Rectangle_45" data-name="Rectangle 45" width="16.6" height="8.83" transform="translate(2104 -275)" fill="#2b45d9"/>
    <g id="Groupe_58" data-name="Groupe 58" transform="translate(1.3 0.138)">
      <path id="Tracé_28" data-name="Tracé 28" d="M122.491,636.059V631.25h3.094a3.011,3.011,0,0,1,2.036.619,2.2,2.2,0,0,1,.712,1.756,2.611,2.611,0,0,1-.278,1.213,2.1,2.1,0,0,1-.783.849,2.27,2.27,0,0,1-.78.284,6.584,6.584,0,0,1-1.194.089Zm1.119-.905h1.447a2.818,2.818,0,0,0,1.638-.359,1.385,1.385,0,0,0,.482-1.187,1.469,1.469,0,0,0-.4-1.117,1.658,1.658,0,0,0-1.183-.38H123.61Z" transform="translate(1982.209 -904.388)" fill="#fff"/>
      <path id="Tracé_29" data-name="Tracé 29" d="M167.6,636.059V631.25h4.113a1.265,1.265,0,0,1,.83.221.891.891,0,0,1,.257.712v1.128a.892.892,0,0,1-.257.71,1.256,1.256,0,0,1-.83.223h-.628l2.22,1.815H171.7l-1.938-1.815H168.7v1.815Zm3.617-3.977H168.7v1.338h2.516a.676.676,0,0,0,.4-.084.359.359,0,0,0,.107-.3v-.578a.354.354,0,0,0-.107-.294A.676.676,0,0,0,171.218,632.083Z" transform="translate(1943.993 -904.388)" fill="#fff"/>
    </g>
  </g>
</svg>
